<?xml version="1.0" encoding="UTF-8"?>
<!DOCTYPE svg  PUBLIC '-//W3C//DTD SVG 1.1//EN'  'http://www.w3.org/Graphics/SVG/1.1/DTD/svg11.dtd'>
<svg enable-background="new 0 0 60 60" version="1.1" viewBox="0 0 60 60" xml:space="preserve" xmlns="http://www.w3.org/2000/svg"><path d="m59.188 41.363-1.444-0.277c-0.677-0.13-1.21-0.573-1.462-1.216-0.253-0.642-0.163-1.329 0.245-1.885l0.907-1.236c0.292-0.398 0.25-0.95-0.1-1.299l-1.959-1.958c-0.339-0.339-0.872-0.389-1.268-0.121l-1.217 0.824c-0.331 0.224-0.71 0.343-1.099 0.343-0.844 0-1.787-0.576-1.956-1.676l-0.233-1.515c-0.075-0.487-0.495-0.848-0.988-0.848h-2.77c-0.479 0-0.892 0.341-0.982 0.812l-0.358 1.865c-0.201 1.051-1.13 1.601-1.942 1.601-0.389 0-0.769-0.118-1.099-0.342l-1.572-1.064c-0.397-0.268-0.929-0.218-1.268 0.121l-1.959 1.958c-0.35 0.349-0.392 0.9-0.1 1.299l0.907 1.236c0.408 0.556 0.498 1.243 0.245 1.885-0.252 0.643-0.785 1.086-1.462 1.216l-1.444 0.277c-0.469 0.091-0.81 0.503-0.81 0.983v2.77c0 0.493 0.36 0.913 0.848 0.988l1.515 0.233c0.683 0.105 1.232 0.528 1.508 1.16 0.276 0.633 0.212 1.323-0.175 1.895l-0.824 1.217c-0.269 0.396-0.218 0.929 0.121 1.268l1.958 1.959c0.348 0.349 0.899 0.391 1.299 0.1l1.236-0.907c0.342-0.252 0.742-0.385 1.156-0.385 0.813 0 1.742 0.551 1.944 1.602l0.277 1.444c0.091 0.471 0.503 0.812 0.982 0.812h2.77c0.493 0 0.913-0.36 0.988-0.848l0.164-1.065c0.169-1.1 1.113-1.676 1.958-1.676 0.413 0 0.813 0.134 1.156 0.386l0.869 0.638c0.4 0.292 0.951 0.25 1.299-0.1l1.958-1.959c0.339-0.339 0.39-0.871 0.121-1.268l-0.824-1.217c-0.387-0.571-0.451-1.262-0.175-1.895 0.275-0.632 0.825-1.055 1.508-1.16l1.515-0.233c0.488-0.077 0.848-0.497 0.848-0.99v-2.77c0-0.479-0.341-0.891-0.812-0.982zm-1.188 2.895-0.667 0.103c-1.354 0.208-2.489 1.082-3.036 2.337-0.548 1.256-0.416 2.682 0.352 3.815l0.361 0.533-0.768 0.768-0.177-0.13c-0.689-0.505-1.498-0.772-2.34-0.772-1.979 0-3.635 1.418-3.935 3.371l-0.032 0.217h-1.086l-0.121-0.633c-0.359-1.868-2.004-3.225-3.909-3.225-0.843 0-1.651 0.268-2.34 0.771l-0.544 0.399-0.768-0.768 0.361-0.533c0.768-1.134 0.899-2.56 0.352-3.815s-1.683-2.129-3.036-2.337l-0.667-0.101v-1.086l0.633-0.121c1.346-0.259 2.447-1.175 2.947-2.449 0.5-1.275 0.315-2.695-0.494-3.8l-0.399-0.544 0.768-0.768 0.889 0.602c0.662 0.448 1.43 0.686 2.22 0.686 1.905 0 3.548-1.355 3.907-3.224l0.202-1.054h1.086l0.103 0.667c0.301 1.953 1.955 3.371 3.934 3.371 0.789 0 1.556-0.237 2.219-0.687l0.533-0.361 0.768 0.768-0.399 0.544c-0.81 1.104-0.994 2.524-0.494 3.8 0.5 1.274 1.602 2.19 2.947 2.449l0.63 0.121v1.086z"/><path d="m47 38.5c-2.757 0-5 2.243-5 5s2.243 5 5 5 5-2.243 5-5-2.243-5-5-5zm0 8c-1.654 0-3-1.346-3-3s1.346-3 3-3 3 1.346 3 3-1.346 3-3 3z"/><path d="m26.515 10.5-5-7h-21.515v53h37.372l-4.253-4.256c-0.339-0.339-0.39-0.871-0.121-1.268l1.303-1.923-2.453-0.377c-0.488-0.074-0.848-0.494-0.848-0.988v-7.821c0-0.479 0.341-0.892 0.812-0.982l2.28-0.438-1.469-2c-0.292-0.398-0.25-0.95 0.1-1.299l5.532-5.529c0.34-0.339 0.87-0.389 1.268-0.121l2.338 1.583 0.054-0.315 0.471-2.454c0.091-0.471 0.503-0.812 0.982-0.812h7.821c0.493 0 0.913 0.36 0.988 0.848l0.378 2.453 1.922-1.303c0.396-0.268 0.929-0.218 1.268 0.121l4.255 4.253v-23.372h-33.485zm31.485 7h-26.485l-3.571-5h30.056v5z"/></svg>
