<?xml version="1.0" encoding="UTF-8"?><svg enable-background="new 0 0 512 512" version="1.1" viewBox="0 0 512 512" xml:space="preserve" xmlns="http://www.w3.org/2000/svg"><path d="M0,0v512h512V0H0z M477.867,477.867H34.133V34.133h443.733V477.867z"/><polygon points="126.53 102.4 199.11 102.4 199.11 68.267 68.267 68.267 68.267 199.11 102.4 199.11 102.4 126.54 198.42 222.56 222.56 198.42"/><polygon points="222.56 313.58 198.42 289.44 102.4 385.47 102.4 312.89 68.267 312.89 68.267 443.73 199.11 443.73 199.11 409.6 126.54 409.6"/><polygon points="409.6 312.89 409.6 385.47 313.58 289.44 289.44 313.58 385.46 409.6 312.89 409.6 312.89 443.73 443.73 443.73 443.73 312.89"/><polygon points="312.89 68.267 312.89 102.4 385.47 102.4 289.44 198.42 313.58 222.56 409.6 126.54 409.6 199.11 443.73 199.11 443.73 68.267"/></svg>
