<?xml version="1.0" standalone="no"?>
<!DOCTYPE svg PUBLIC "-//W3C//DTD SVG 20010904//EN"
 "http://www.w3.org/TR/2001/REC-SVG-20010904/DTD/svg10.dtd">
<svg version="1.0" xmlns="http://www.w3.org/2000/svg"
 width="50.000000pt" height="50.000000pt" viewBox="0 0 50.000000 50.000000"
 preserveAspectRatio="xMidYMid meet">

<g transform="translate(0.000000,50.000000) scale(0.100000,-0.100000)"
fill="#000000" stroke="none">
<path d="M155 456 c-60 -28 -87 -56 -114 -116 -36 -79 -19 -183 42 -249 33
-36 115 -71 167 -71 82 0 185 66 205 131 12 35 1 30 -35 -19 -43 -57 -83 -81
-148 -89 -196 -23 -311 223 -166 359 100 94 268 66 330 -54 17 -33 30 -32 19
1 -20 65 -123 131 -205 131 -26 0 -66 -10 -95 -24z"/>
<path d="M190 295 l-44 -45 46 -47 c26 -26 51 -44 54 -40 4 4 -8 23 -26 42
l-34 35 147 0 c91 0 147 4 147 10 0 6 -56 10 -147 10 l-147 0 32 33 c18 18 32
36 32 40 0 16 -18 4 -60 -38z"/>
</g>
</svg>
